Coordinates
version=1
nRows=14
nColumns=40
inDegrees=yes

Units are S.I. units (second, meters, Newtons, ...)
Angles are in degrees.

endheader
time	pelvis_tilt	pelvis_list	pelvis_rotation	pelvis_tx	pelvis_ty	pelvis_tz	hip_flexion_r	hip_adduction_r	hip_rotation_r	knee_angle_r	knee_angle_r_beta	ankle_angle_r	subtalar_angle_r	mtp_angle_r	hip_flexion_l	hip_adduction_l	hip_rotation_l	knee_angle_l	knee_angle_l_beta	ankle_angle_l	subtalar_angle_l	mtp_angle_l	lumbar_extension	lumbar_bending	lumbar_rotation	arm_flex_r	arm_add_r	arm_rot_r	elbow_flex_r	pro_sup_r	wrist_flex_r	wrist_dev_r	arm_flex_l	arm_add_l	arm_rot_l	elbow_flex_l	pro_sup_l	wrist_flex_l	wrist_dev_l
     53.69300000	     -3.15336437	     -5.12832232	      6.75029834	      1.04085694	      0.92447890	      0.49451812	      0.40701770	      2.31888127	    -17.85535103	     10.62822044	     10.62822044	     14.31776511	      1.36123626	     -7.90633821	     27.49770380	     -8.62269828	     -1.61038401	     25.08335444	     25.08335444	      6.13805830	    -11.00988345	      5.68845677	     -8.30439382	      5.96069669	      4.05212665	     38.74485435	    -16.05380469	     -1.00817627	    104.26490726	     44.06944979	      0.00000000	      0.00000000	     -0.21059579	    -11.06407377	     -7.30183050	     31.80300574	     46.50659449	      0.00000000	      0.00000000
     53.70600000	     -3.12930404	     -5.06093262	      6.74802794	      1.04245535	      0.92386211	      0.49158003	     -0.07086629	      2.06736716	    -17.87704915	     10.75745785	     10.75745785	     14.71766357	      1.52098409	     -7.60958646	     26.87057632	     -8.31097934	     -1.56685969	     25.35470180	     25.35470180	      6.37473699	    -11.26209874	      5.42275661	     -8.17004439	      5.86187889	      3.93614547	     38.67769696	    -15.86092847	     -1.15425503	    105.13318967	     44.05901005	      0.00000000	      0.00000000	     -0.57953174	    -11.11267616	     -7.23742622	     31.72209926	     46.48440324	      0.00000000	      0.00000000
     53.71900000	     -3.22992285	     -5.02182461	      6.73143234	      1.04390137	      0.92323526	      0.48850016	     -0.40105767	      1.83328839	    -17.82048830	     10.84474851	     10.84474851	     14.90441917	      1.48417360	     -7.57280460	     26.45864851	     -8.02383664	     -1.47965787	     25.59476286	     25.59476286	      6.74855554	    -11.40754647	      5.21974252	     -7.84980376	      5.80157117	      3.92108622	     38.55815984	    -15.91116837	     -1.21849172	    105.23393002	     44.05951670	      0.00000000	      0.00000000	     -0.87204407	    -11.00140258	     -7.21445318	     31.63288665	     46.47499770	      0.00000000	      0.00000000
     53.73200000	     -3.23556862	     -4.84100015	      6.74311908	      1.04521951	      0.92292133	      0.48512859	     -0.53979776	      1.31222016	    -17.89305189	     11.64938497	     11.64938497	     16.06006457	      1.77950443	     -5.19582682	     26.00146531	     -7.52632387	     -1.16457799	     25.81083672	     25.81083672	      6.70370142	    -12.22202296	      4.48355350	     -7.78141773	      5.55408071	      4.17536652	     37.66984439	    -16.07918212	     -2.29437660	    106.44221323	     44.12052393	      0.00000000	      0.00000000	     -0.99274459	    -11.01555398	     -6.53817624	     31.81463851	     46.33947991	      0.00000000	      0.00000000
     53.74500000	     -3.22452184	     -4.71289282	      6.75819726	      1.04644675	      0.92271786	      0.48168002	     -0.80405802	      0.90783121	    -17.79825948	     12.10274212	     12.10274212	     16.22523828	      1.56681961	     -5.08631120	     25.66169972	     -7.16206828	     -1.01463603	     26.17458441	     26.17458441	      7.12082468	    -12.49602446	      4.28014210	     -7.66200648	      5.43042353	      4.01544345	     37.28077354	    -16.05200885	     -2.34865179	    106.34445940	     44.13304266	      0.00000000	      0.00000000	     -1.17744142	    -10.99240414	     -6.42041518	     31.66852211	     46.31506097	      0.00000000	      0.00000000
     53.75800000	     -3.20135059	     -4.61105137	      6.77574639	      1.04763552	      0.92273170	      0.47806385	     -1.13797617	      0.53772561	    -17.74613548	     12.40004732	     12.40004732	     16.21099361	      1.42837652	     -5.02667287	     25.33447041	     -6.82769169	     -0.83529066	     26.51635072	     26.51635072	      7.64411716	    -12.71512016	      4.04173879	     -7.60968773	      5.36088393	      3.84355490	     36.84455996	    -16.09809437	     -2.39820266	    106.21572162	     44.13917820	      0.00000000	      0.00000000	     -1.35358628	    -10.79501972	     -6.36218550	     31.59024978	     46.30244722	      0.00000000	      0.00000000
     53.77100000	     -3.21578832	     -4.40851907	      6.75488455	      1.04852341	      0.92272009	      0.47435072	     -0.98195924	     -0.10732819	    -17.56765630	     13.60299461	     13.60299461	     16.50405473	      0.97873484	     -4.82894573	     25.09771423	     -6.35985139	     -0.64053560	     26.91260376	     26.91260376	      8.02879897	    -13.29773968	      4.07736758	     -7.50872216	      5.15717065	      3.82285860	     36.03208227	    -16.13101223	     -2.78733084	    105.56555165	     44.18039731	      0.00000000	      0.00000000	     -1.30434401	    -10.79633286	     -6.17204069	     31.49556548	     46.27021636	      0.00000000	      0.00000000
     53.78400000	     -3.18759607	     -4.30206647	      6.73317632	      1.04948180	      0.92302015	      0.47051037	     -0.96491287	     -0.63146870	    -17.47954933	     14.62757020	     14.62757020	     17.01500901	      0.92737211	     -3.40946377	     24.80793001	     -6.00157367	     -0.46154612	     27.29387730	     27.29387730	      8.77510159	    -13.64557286	      4.80759193	     -7.44050532	      5.09807958	      3.80804772	     35.20005551	    -15.97391213	     -3.68630093	    104.71054255	     44.28903948	      0.00000000	      0.00000000	     -1.08588507	    -10.72121419	     -5.15358894	     30.97269374	     46.10226909	      0.00000000	      0.00000000
     53.79700000	     -3.01289969	     -4.31662605	      6.69315274	      1.05057731	      0.92362924	      0.46676058	     -1.24426769	     -0.95445795	    -17.41143410	     15.27282691	     15.27282691	     16.78393566	      0.80678138	     -3.42176615	     24.31712455	     -5.85674889	     -0.42198090	     27.57317571	     27.57317571	      9.27825858	    -13.80359563	      4.61733560	     -7.57325119	      5.20470218	      3.65741506	     34.34902106	    -16.00714332	     -3.66422502	    104.30518346	     44.29981573	      0.00000000	      0.00000000	     -1.15747472	    -10.47456406	     -5.08869033	     30.95837098	     46.09041927	      0.00000000	      0.00000000
     53.81000000	     -3.05037667	     -4.11692290	      6.46672929	      1.05135596	      0.92390024	      0.46305804	     -0.68664700	     -1.76509611	    -17.12714703	     17.13195160	     17.13195160	     16.83536282	      0.36110514	     -3.78904201	     23.95240079	     -5.54257214	     -0.74372807	     27.76792616	     27.76792616	      9.75405657	    -13.77617871	      4.60436415	     -7.41903653	      5.00871345	      3.95428119	     33.25597118	    -16.31166014	     -4.02063754	    102.58503900	     44.37077768	      0.00000000	      0.00000000	     -0.84723706	    -10.37836916	     -4.88360690	     30.97671198	     46.06169944	      0.00000000	      0.00000000
     53.82300000	     -2.80410747	     -4.30343545	      6.32870785	      1.05247789	      0.92481228	      0.45949337	     -0.83294530	     -1.96245986	    -17.02089870	     18.09806118	     18.09806118	     16.44823453	      0.24897536	     -3.87877654	     23.27746954	     -5.62593485	     -0.79524565	     27.87393101	     27.87393101	     10.26317243	    -13.88732796	      4.48238265	     -7.63258914	      5.30332556	      3.76731049	     32.19906135	    -16.22270865	     -4.01148561	    101.90990676	     44.38939579	      0.00000000	      0.00000000	     -0.82154656	    -10.15168567	     -4.79751431	     30.95101348	     46.04854513	      0.00000000	      0.00000000
     53.83600000	     -2.92030868	     -4.14417434	      5.99529570	      1.05314875	      0.92500238	      0.45612597	      0.19285759	     -2.81317741	    -16.51148663	     20.58652250	     20.58652250	     16.23809897	     -0.57200165	     -4.84410726	     22.94256773	     -5.45137280	     -1.43176852	     28.02008119	     28.02008119	     10.88086466	    -13.42832472	      4.58671876	     -7.22942098	      5.10612676	      4.03299380	     31.32362837	    -16.02912186	     -4.74862110	     98.38547117	     44.53768004	      0.00000000	      0.00000000	     -0.31907336	    -10.11140492	     -4.20257531	     30.53542002	     45.96450099	      0.00000000	      0.00000000
     53.84900000	     -2.80984199	     -4.07317749	      5.64449280	      1.05396910	      0.92580473	      0.45293635	      0.85808671	     -3.48406924	    -16.04436953	     22.77469688	     22.77469688	     15.75776560	     -1.15161590	     -5.52566606	     22.19804513	     -5.38025763	     -2.01579105	     27.87105955	     27.87105955	     11.41243189	    -13.04772678	      4.49639641	     -7.29491951	      5.03445217	      4.14485117	     30.22117400	    -15.99439963	     -4.81040911	     96.46277707	     44.60321804	      0.00000000	      0.00000000	      0.01692317	    -10.02834968	     -3.94051184	     30.50462940	     45.92921366	      0.00000000	      0.00000000
     53.86200000	     -2.74229089	     -4.11167591	      5.26632923	      1.05466756	      0.92648840	      0.45002574	      1.80911097	     -4.05905143	    -15.49121590	     25.32290152	     25.32290152	     15.09699266	     -1.94675305	     -6.37606376	     21.53137610	     -5.45609205	     -2.64025491	     27.75035127	     27.75035127	     11.92451608	    -12.56564973	      4.31992575	     -7.24794293	      5.03344276	      4.26090607	     29.11935398	    -15.90161070	     -4.90253497	     94.03502152	     44.68530175	      0.00000000	      0.00000000	      0.42471873	     -9.94599941	     -3.63519856	     30.45811825	     45.88916767	      0.00000000	      0.00000000
